<mxfile host="app.diagrams.net" modified="2024-05-07T11:21:20.381Z" agent="Mozilla/5.0 (Macintosh; Intel Mac OS X 10_15_7) AppleWebKit/537.36 (KHTML, like Gecko) Chrome/124.0.0.0 Safari/537.36" etag="3QXJiDF-wjJnLIvEGjSp" version="24.3.1" type="github">
  <diagram name="Page-1" id="lMMN3oVp2xh2R2HWmzUN">
    <mxGraphModel dx="954" dy="560" grid="1" gridSize="10" guides="1" tooltips="1" connect="1" arrows="1" fold="1" page="1" pageScale="1" pageWidth="827" pageHeight="1169" math="0" shadow="0">
      <root>
        <mxCell id="0" />
        <mxCell id="1" parent="0" />
        <mxCell id="laTSjdJnJN_W_BYF6_3Z-19" value="" style="rounded=0;whiteSpace=wrap;html=1;fillColor=#fff2cc;strokeColor=#d6b656;" vertex="1" parent="1">
          <mxGeometry x="70" y="50" width="240" height="380" as="geometry" />
        </mxCell>
        <mxCell id="laTSjdJnJN_W_BYF6_3Z-3" style="edgeStyle=orthogonalEdgeStyle;rounded=0;orthogonalLoop=1;jettySize=auto;html=1;entryX=0;entryY=0.5;entryDx=0;entryDy=0;" edge="1" parent="1" source="laTSjdJnJN_W_BYF6_3Z-1" target="laTSjdJnJN_W_BYF6_3Z-2">
          <mxGeometry relative="1" as="geometry" />
        </mxCell>
        <mxCell id="laTSjdJnJN_W_BYF6_3Z-18" style="edgeStyle=orthogonalEdgeStyle;rounded=0;orthogonalLoop=1;jettySize=auto;html=1;entryX=0.5;entryY=0;entryDx=0;entryDy=0;" edge="1" parent="1" source="laTSjdJnJN_W_BYF6_3Z-1" target="laTSjdJnJN_W_BYF6_3Z-9">
          <mxGeometry relative="1" as="geometry" />
        </mxCell>
        <mxCell id="laTSjdJnJN_W_BYF6_3Z-1" value="New Gen&amp;nbsp;" style="rounded=0;whiteSpace=wrap;html=1;" vertex="1" parent="1">
          <mxGeometry x="140" y="70" width="120" height="100" as="geometry" />
        </mxCell>
        <mxCell id="laTSjdJnJN_W_BYF6_3Z-6" value="" style="edgeStyle=orthogonalEdgeStyle;rounded=0;orthogonalLoop=1;jettySize=auto;html=1;" edge="1" parent="1" source="laTSjdJnJN_W_BYF6_3Z-2" target="laTSjdJnJN_W_BYF6_3Z-5">
          <mxGeometry relative="1" as="geometry" />
        </mxCell>
        <mxCell id="laTSjdJnJN_W_BYF6_3Z-8" value="" style="edgeStyle=orthogonalEdgeStyle;rounded=0;orthogonalLoop=1;jettySize=auto;html=1;" edge="1" parent="1" source="laTSjdJnJN_W_BYF6_3Z-2" target="laTSjdJnJN_W_BYF6_3Z-7">
          <mxGeometry relative="1" as="geometry" />
        </mxCell>
        <mxCell id="laTSjdJnJN_W_BYF6_3Z-2" value="MW verified income&amp;nbsp;" style="rounded=0;whiteSpace=wrap;html=1;" vertex="1" parent="1">
          <mxGeometry x="380" y="120" width="120" height="60" as="geometry" />
        </mxCell>
        <mxCell id="laTSjdJnJN_W_BYF6_3Z-5" value="GOSI&lt;div&gt;DAKHLI&lt;/div&gt;" style="whiteSpace=wrap;html=1;rounded=0;" vertex="1" parent="1">
          <mxGeometry x="380" y="310" width="120" height="60" as="geometry" />
        </mxCell>
        <mxCell id="laTSjdJnJN_W_BYF6_3Z-7" value="Dynamic CRM" style="whiteSpace=wrap;html=1;rounded=0;" vertex="1" parent="1">
          <mxGeometry x="580" y="120" width="120" height="60" as="geometry" />
        </mxCell>
        <mxCell id="laTSjdJnJN_W_BYF6_3Z-9" value="T24" style="rounded=1;whiteSpace=wrap;html=1;" vertex="1" parent="1">
          <mxGeometry x="140" y="290" width="120" height="100" as="geometry" />
        </mxCell>
        <mxCell id="laTSjdJnJN_W_BYF6_3Z-12" value="income snap shot" style="text;html=1;align=center;verticalAlign=middle;whiteSpace=wrap;rounded=0;fillColor=#dae8fc;strokeColor=#6c8ebf;" vertex="1" parent="1">
          <mxGeometry x="140" y="140" width="100" height="30" as="geometry" />
        </mxCell>
        <mxCell id="laTSjdJnJN_W_BYF6_3Z-16" value="Customer Record Static&amp;nbsp;" style="text;html=1;align=center;verticalAlign=middle;whiteSpace=wrap;rounded=0;fillColor=#dae8fc;strokeColor=#6c8ebf;" vertex="1" parent="1">
          <mxGeometry x="140" y="360" width="100" height="30" as="geometry" />
        </mxCell>
        <mxCell id="laTSjdJnJN_W_BYF6_3Z-21" value="" style="shape=cylinder3;whiteSpace=wrap;html=1;boundedLbl=1;backgroundOutline=1;size=6;" vertex="1" parent="1">
          <mxGeometry x="670" y="160" width="40" height="30" as="geometry" />
        </mxCell>
      </root>
    </mxGraphModel>
  </diagram>
</mxfile>
